<?xml version="1.0" encoding="UTF-8" standalone="no"?>
<svg
   xmlns:dc="http://purl.org/dc/elements/1.1/"
   xmlns:cc="http://creativecommons.org/ns#"
   xmlns:rdf="http://www.w3.org/1999/02/22-rdf-syntax-ns#"
   xmlns:svg="http://www.w3.org/2000/svg"
   xmlns="http://www.w3.org/2000/svg"
   viewBox="0 0 636.83752 588.96252"
   height="588.96252"
   width="636.83752"
   xml:space="preserve"
   version="1.1"
   id="svg4750"><metadata
     id="metadata4756"><rdf:RDF><cc:Work
         rdf:about=""><dc:format>image/svg+xml</dc:format><dc:type
           rdf:resource="http://purl.org/dc/dcmitype/StillImage" /><dc:title></dc:title></cc:Work></rdf:RDF></metadata><defs
     id="defs4754" /><g
     transform="matrix(1.25,0,0,-1.25,0,588.9625)"
     id="g4758"><g
       transform="scale(0.1,0.1)"
       id="g4760"><path
         id="path4768"
         style="fill:#ffffff;fill-opacity:1;fill-rule:nonzero;stroke:none"
         d="m 4223.54,2693.93 c -43,-43.76 -100.47,-68.16 -161.85,-68.7 -0.67,-0.01 -1.38,-0.01 -2.07,-0.01 -60.61,0 -117.68,23.33 -160.94,65.86 l -102.51,-104.33 c 70.82,-69.59 164.23,-107.8 263.41,-107.79 1.12,0 2.27,0.01 3.41,0.02 100.44,0.88 194.5,40.81 264.88,112.46 145.26,147.9 143.16,386.42 -4.72,531.69 l -102.51,-104.34 c 90.37,-88.76 91.65,-234.5 2.9,-324.86" /><path
         id="path4770"
         style="fill:#ffffff;fill-opacity:1;fill-rule:nonzero;stroke:none"
         d="M 4513.21,3330.74 4410.69,3226.4 c 201.21,-197.67 204.1,-522.22 6.43,-723.48 -95.75,-97.46 -223.74,-151.81 -360.41,-153 -136.44,-1.86 -265.6,50.88 -363.04,146.64 l -102.52,-104.32 c 123.91,-121.77 287.37,-188.62 460.89,-188.61 1.96,0 3.97,0.01 5.96,0.03 175.73,1.54 340.33,71.42 463.46,196.77 254.17,258.79 250.47,676.13 -8.25,930.31" /><path
         id="path4772"
         style="fill:#ffffff;fill-opacity:1;fill-rule:nonzero;stroke:none"
         d="m 3186.07,3909.79 c 33.02,0 59.8,26.77 59.8,59.78 0,33.04 -26.78,59.81 -59.8,59.81 -33.02,0 -59.78,-26.77 -59.78,-59.81 0,-33.01 26.76,-59.78 59.78,-59.78" /><path
         id="path4774"
         style="fill:#ffffff;fill-opacity:1;fill-rule:nonzero;stroke:none"
         d="m 2702.79,3909.79 c 0,190.29 154.82,345.1 345.1,345.1 190.28,0 345.1,-154.81 345.1,-345.1 0,-190.28 -154.82,-345.09 -345.1,-345.09 -190.28,0 -345.1,154.81 -345.1,345.09 z M 1608.13,2659.48 c -535.57,0 -971.271,435.71 -971.271,971.27 0,535.56 435.701,971.27 971.271,971.27 535.55,0 971.25,-435.71 971.25,-971.27 0,-535.56 -435.7,-971.27 -971.25,-971.27 z m 1743.1,820.9 630.06,-634.18 c 12.52,-12.6 28.96,-18.89 45.4,-18.89 16.31,0 32.63,6.19 45.11,18.59 25.06,24.91 25.19,65.42 0.3,90.49 l -610.29,614.28 c -15.56,115.08 15.42,222.53 22.66,249.13 l -0.03,0 c 11.02,36.39 18.24,74.1 18.24,109.99 0,250.78 -204.02,454.8 -454.79,454.8 -207.57,0 -382.96,-139.82 -437.29,-330.18 -160.29,396.61 -549.1,677.3 -1002.47,677.3 -596.05,0 -1080.962,-484.92 -1080.962,-1080.96 0,-415.13 235.352,-776.13 579.522,-957.18 -69.37,-91.93 -212.155,-233.14 -357.174,-258.08 -69.657,-11.97 -116.407,-78.16 -104.434,-147.81 10.719,-62.33 64.82,-106.31 125.977,-106.31 7.203,0 14.504,0.61 21.847,1.87 243.334,41.85 463.854,261.43 558.344,417.64 31.75,-7.77 63.99,-14.28 96.77,-19.17 -26.03,-66.32 -199.73,-296.1 -384.29,-335.08 -69.152,-14.61 -113.371,-82.51 -98.773,-151.67 13.078,-61.86 68.803,-103.77 129.923,-101.46 7.19,0.28 14.47,1.16 21.75,2.69 309.36,65.34 570.69,420.81 585.66,551.6 1.03,8.95 0.79,17.72 -0.01,26.35 55.46,4.81 109.67,14.02 162.45,26.92 673.09,123.14 1104.91,687.99 1181.75,873.99 0.48,0 0.94,-0.05 1.41,-0.05 4.55,3.81 10.41,7.06 17.03,10 86.08,22.21 204.11,41.83 286.31,15.38" /></g></g></svg>