<?xml version="1.0" encoding="UTF-8" standalone="no"?>
<svg
   xmlns:dc="http://purl.org/dc/elements/1.1/"
   xmlns:cc="http://creativecommons.org/ns#"
   xmlns:rdf="http://www.w3.org/1999/02/22-rdf-syntax-ns#"
   xmlns:svg="http://www.w3.org/2000/svg"
   xmlns="http://www.w3.org/2000/svg"
   viewBox="0 0 636.83752 588.96252"
   height="588.96252"
   width="636.83752"
   xml:space="preserve"
   version="1.1"
   id="svg4750"><metadata
     id="metadata4756"><rdf:RDF><cc:Work
         rdf:about=""><dc:format>image/svg+xml</dc:format><dc:type
           rdf:resource="http://purl.org/dc/dcmitype/StillImage" /><dc:title></dc:title></cc:Work></rdf:RDF></metadata><defs
     id="defs4754" /><g
     transform="matrix(1.25,0,0,-1.25,0,588.9625)"
     id="g4758"><g
       transform="scale(0.1,0.1)"
       id="g4760"><path
         id="path4762"
         style="fill:#ffffff;fill-opacity:1;fill-rule:nonzero;stroke:none"
         d="m 964.398,491.281 -426.886,664.249 383.093,410.29 -254.05,0 -442.59,-497.12 0,762.22 L 0,1780.65 0,446.031 l 223.965,0 0,373.461 155.336,166.477 341.422,-539.938 243.675,0 29.079,0 194.873,0 0,1119.789 -223.952,0 0,-1074.539" /><path
         id="path4764"
         style="fill:#ffffff;fill-opacity:1;fill-rule:nonzero;stroke:none"
         d="m 2869.71,1565.82 -230.1,0 -249.6,-674.289 -230.74,505.789 -76.87,168.5 -92.59,0 -76.87,-168.5 -230.75,-505.789 -249.58,674.289 -230.12,0 -9.56,0 357.36,-963.429 57.88,-156.36 117.13,0 67.24,147.418 243.57,533.881 243.55,-533.881 67.25,-147.418 117.12,0 57.89,156.36 352.98,953.689 0,-1110.049 223.97,0 -0.18,1119.789 -228.98,0" /><path
         id="path4766"
         style="fill:#ffffff;fill-opacity:1;fill-rule:nonzero;stroke:none"
         d="m 4568.99,1405.98 c 130.41,0 236.19,-112.69 236.19,-251.74 0,-139.04 -105.78,-251.791 -236.19,-251.791 -130.45,0 -236.21,112.751 -236.21,251.791 0,139.05 105.76,251.74 236.21,251.74 z m 58.63,-784.441 c -250.08,-59.68 -301.62,39.883 -180.13,130.949 38.78,-9.058 79.49,-13.937 121.5,-13.937 260.88,0 472.39,186.09 472.39,415.689 0,90.33 -32.87,173.88 -88.48,242.06 l 129.6,91.81 -146.26,143.2 -107.71,-129.81 c -74.5,43.2 -163.65,68.4 -259.54,68.4 -216.68,0 -399.13,-128.36 -454.83,-303.35 -83.38,317.57 -502.01,408.39 -741.05,163.35 l 0,135.92 -223.97,0 0,-1119.789 223.97,0 0,816.129 c 222.24,244.64 517.14,126.48 531.71,-97.03 l 0,-719.099 223.97,0 0,557.359 c 36.7,-82.851 102.68,-152.781 186.83,-199.929 -64.35,-39.961 -162.44,-115.43 -156.37,-220.332 0,-36.57 -3.44,-155.981 396.1,-127.981 170.66,12.133 353.47,24.391 335.19,-143.199 -18.28,-143.207 -414.41,-185.879 -627.25,-17.527 l -134.5,-159.211 c 204.14,-198.0508 926.28,-213.2891 965.89,191.961 0,67.047 1.52,362.617 -467.06,294.367" />
</g></g></svg>